{"asset":{"version":"2.0","generator":"THREE.GLTFExporter r172"},"scenes":[{"nodes":[0]}],"scene":0,"nodes":[{"mesh":0}],"bufferViews":[{"buffer":0,"byteOffset":0,"byteLength":234612,"target":34962,"byteStride":12},{"buffer":0,"byteOffset":234612,"byteLength":39104,"target":34963}],"buffers":[{"byteLength":273716,"uri":"data:application/octet-stream;base64,"}],"accessors":[{"bufferView":0,"componentType":5126,"count":19551,"max":[82.1498031616211,36.39859390258789,55.16175842285156],"min":[-82.85018920898438,-2.401406764984131,-55.638240814208984],"type":"VEC3"},{"bufferView":1,"componentType":5123,"count":19551,"max":[19550],"min":[0],"type":"SCALAR"}],"materials":[{"pbrMetallicRoughness":{"metallicFactor":0,"roughnessFactor":1}}],"meshes":[{"primitives":[{"mode":4,"attributes":{"POSITION":0},"indices":1,"material":0}]}]}